<?xml version="1.0" encoding="utf-8"?>
<!-- Generator: Adobe Illustrator 19.2.0, SVG Export Plug-In . SVG Version: 6.00 Build 0)  -->
<svg version="1.1" id="Слой_1" xmlns="http://www.w3.org/2000/svg" xmlns:xlink="http://www.w3.org/1999/xlink" x="0px" y="0px"
	 viewBox="0 0 15.5 17.4" style="enable-background:new 0 0 15.5 17.4;" xml:space="preserve">
<style type="text/css">
	.st0{fill:#6285A0;}
	.st1{fill:#FFFFFF;}
</style>
<path class="st0" d="M8.3,0.1C8,0,7.6,0,7.2,0.1L1.9,1.9C1.5,2,1.1,2.3,0.9,2.8C-1.4,8,0.8,14,5.9,16.6l1.3,0.7
	c0.4,0.2,0.8,0.2,1.2,0l1.3-0.7c5.1-2.5,7.3-8.6,5-13.8c-0.2-0.4-0.6-0.8-1-0.9L8.3,0.1z"/>
<path class="st1" d="M11.6,6.7c0.3-0.3,0.3-0.8,0-1.1c-0.3-0.3-0.8-0.3-1.1,0L6.7,9.2L5.1,7.6C4.8,7.3,4.3,7.4,4,7.7
	C3.8,8,3.8,8.4,4.1,8.7l2.1,2c0.3,0.3,0.7,0.3,1,0L11.6,6.7z"/>
</svg>
