<?xml version="1.0" encoding="utf-8"?>
<!-- Generator: Adobe Illustrator 19.2.0, SVG Export Plug-In . SVG Version: 6.00 Build 0)  -->
<svg version="1.1" id="Слой_1" xmlns="http://www.w3.org/2000/svg" xmlns:xlink="http://www.w3.org/1999/xlink" x="0px" y="0px"
	 viewBox="0 0 494.3 419.2" style="enable-background:new 0 0 494.3 419.2;" xml:space="preserve">
<style type="text/css">
	.st0{fill:#6285A0;}
</style>
<path class="st0" d="M419.2,209.6C419.2,94,325.2,0,209.6,0C94,0,0,94,0,209.6s94,209.6,209.6,209.6c14.1,0,25.6-11.5,25.6-25.6
	c0-14.2-11.5-25.6-25.6-25.6c-87.3,0-158.4-71-158.4-158.4c0-87.3,71-158.4,158.4-158.4S368,122.3,368,209.6
	c0,14.2,11.5,25.6,25.6,25.6C407.7,235.2,419.2,223.7,419.2,209.6z"/>
<path class="st0" d="M349.5,369.8h-40.8v-0.4l13.4-11.2c21-18.8,38.7-38.2,38.7-62.6c0-26.4-18.1-45.6-51-45.6
	c-14.5,0-27.5,3.6-37.7,8.8c-5.8,3-8.4,9.8-6,15.9l0.3,0.8c1.3,3.2,3.8,5.7,7,7c3.2,1.3,6.8,1.1,9.9-0.4c5.8-2.8,12.4-4.9,19.6-4.9
	c16.7,0,23.9,9.4,23.9,21.2c-0.4,17-15.9,33.3-47.6,61.7L263,374.9c-1.6,1.4-2.5,3.5-2.5,5.7v9.5c0,4.2,3.4,7.6,7.6,7.6h81.4
	c7.7,0,14-6.3,14-14C363.5,376,357.3,369.8,349.5,369.8z"/>
<path class="st0" d="M481.6,337.6h-4.7v-77.5c0-4.2-3.4-7.6-7.6-7.6h-29.7c-2.6,0-5.1,1.4-6.5,3.6l-51.6,83c-0.8,1.2-1.1,2.6-1.1,4
	v12.3c0,4.2,3.4,7.6,7.6,7.6h56.7v18.6c0,8.9,7.2,16.1,16.1,16.1c8.9,0,16.1-7.2,16.1-16.1v-18.5h4.7c7,0,12.7-5.7,12.7-12.7
	C494.3,343.3,488.6,337.6,481.6,337.6z M444.7,305.5v32.2h-32.6v-0.4l19.4-31.7c4.9-9.2,8.7-17.7,13.4-27h0.9
	C445.1,287.8,444.7,296.7,444.7,305.5z"/>
<path class="st0" d="M209.6,77.6c-10.2,0-18.5,8.3-18.5,18.5v102.1c0,16.8,13.6,30.4,30.4,30.4h74.2c10.2,0,18.5-8.3,18.5-18.5
	s-8.3-18.5-18.5-18.5h-67.6V96.1C228.1,85.9,219.8,77.6,209.6,77.6z"/>
</svg>
